<svg width="146" height="63" viewBox="0 0 146 63" fill="none" xmlns="http://www.w3.org/2000/svg">
<g clip-path="url(#clip0_145_177)">
<path d="M89.2684 8.0353C87.67 6.59439 85.9233 5.31731 84.0542 4.22858V17.6095C80.2323 13.25 74.6409 10.4999 68.4115 10.4999C62.5767 10.4999 57.3009 12.9124 53.5155 16.801C54.552 18.3415 55.4295 19.9991 56.1253 21.7501C58.9898 18.0957 63.4284 15.7498 68.4115 15.7498C77.0507 15.7498 84.0542 22.8013 84.0542 31.4996C84.0542 37.7296 80.4619 43.1143 75.2492 45.6692C73.6386 46.4585 71.8729 46.9776 70.0107 47.1683C69.4852 47.2219 68.9514 47.2494 68.4115 47.2494C66.5431 47.2494 64.7508 46.9194 63.09 46.3146C57.0705 44.1218 52.7688 38.3168 52.7688 31.4996C52.7688 19.9018 43.4308 10.4999 31.9119 10.4999C20.3929 10.4999 11.0549 19.9018 11.0549 31.4996C11.0549 43.0974 20.3929 52.4994 31.9119 52.4994C37.7466 52.4994 43.0224 50.0869 46.8078 46.1982C45.7714 44.6578 44.8938 43.0002 44.198 41.2492C41.3335 44.9035 36.8949 47.2494 31.9119 47.2494C23.2727 47.2494 16.2692 40.198 16.2692 31.4996C16.2692 22.8013 23.2727 15.7498 31.9119 15.7498C40.551 15.7498 47.5546 22.8013 47.5546 31.4996C47.5546 33.6916 47.8884 35.8048 48.5066 37.7908C49.5035 40.9912 51.2403 43.8615 53.5155 46.1982C55.1892 47.9178 57.1549 49.3488 59.3313 50.41C62.0764 51.749 65.1569 52.4994 68.4115 52.4994C71.6661 52.4994 74.5481 51.7965 77.2256 50.5378C77.3016 50.5018 77.3784 50.4651 77.4545 50.4283C77.6065 50.3548 77.7571 50.279 77.9077 50.2017C84.6526 46.7234 89.2692 39.6544 89.2692 31.4996V8.0353H89.2684Z" fill="#0056A9"/>
<path d="M138.595 10.4999H98.3684C99.5151 12.1552 100.53 13.9108 101.398 15.7498H110.125V51.9412C111.975 51.4619 113.725 50.733 115.339 49.7936V15.7498H145.269C143.247 13.7584 141.032 11.9783 138.595 10.4999Z" fill="#0056A9"/>
<path d="M31.9119 63C40.6651 63 48.5781 59.3809 54.2562 53.5475C52.7817 52.5859 51.4107 51.4788 50.1613 50.2461C45.4589 54.8881 39.0173 57.7501 31.9111 57.7501C17.5125 57.7501 5.83996 45.9976 5.83996 31.5004C5.83996 17.0031 17.5125 5.24994 31.9119 5.24994C35.1939 5.24994 38.3344 5.86091 41.2278 6.97567C42.4902 5.55849 43.8604 4.24007 45.325 3.0342C41.2598 1.08873 36.7117 0 31.9119 0C14.6328 0 0.625732 14.1029 0.625732 31.4996C0.625732 48.8963 14.6328 62.9992 31.9111 62.9992L31.9119 63Z" fill="#343435"/>
<path d="M94.4828 31.4996C94.4828 45.9969 82.8103 57.7493 68.4117 57.7493C65.1297 57.7493 61.9891 57.1383 59.0957 56.0243C57.8334 57.4415 56.4631 58.7599 54.9985 59.9658C59.0638 61.9113 63.6119 62.9992 68.4117 62.9992C85.69 62.9992 99.6971 48.8963 99.6971 31.4996C99.6971 25.0591 97.7777 19.0704 94.4828 14.0815V31.4996Z" fill="#343435"/>
<path d="M68.4115 0C72.0684 0 75.5785 0.631646 78.8399 1.79234V7.43428C75.6462 6.02935 72.1193 5.24994 68.4115 5.24994C61.3053 5.24994 54.8645 8.11187 50.1613 12.7539C48.9119 11.5212 47.5409 10.4141 46.0664 9.45249C51.7445 3.61914 59.6582 0 68.4115 0Z" fill="#343435"/>
<path d="M87.2222 0C89.6685 1.48379 91.9277 3.24858 93.9557 5.24994H136.197C134.169 3.24858 131.909 1.48379 129.463 0H87.2222Z" fill="#343435"/>
<path d="M128.813 20.9997H134.416C135.57 24.2843 136.197 27.8177 136.197 31.4996C136.197 48.8963 122.19 62.9992 104.911 62.9992C100.111 62.9992 95.5633 61.9105 91.498 59.9658C92.9634 58.7599 94.3329 57.4415 95.5952 56.0243C98.4879 57.1391 101.629 57.7493 104.911 57.7493C119.31 57.7493 130.982 45.9969 130.982 31.4996C130.982 27.7664 130.208 24.2154 128.813 20.9997Z" fill="#343435"/>
</g>
<defs>
<clipPath id="clip0_145_177">
<rect width="146" height="63" fill="white"/>
</clipPath>
</defs>
</svg>
